# xmcd CD database file
#
# Track frame offsets:
#	182
#	14065
#	27905
#	41465
#	55512
#	64465
#	75905
#	87260
#	99257
#	110375
#	123807
#	140177
#	151195
#	168230
#	178025
#
# Disc length: 2603 seconds
#
# Revision: 0
# Processed by: cddbd v1.4PL0 Copyright (c) Steve Scherf et al.
# Submitted via: CDex 1.40Release
#
DISCID=b60a290f
DTITLE=Ella Fitzgerald - Lover Come Back To Me
DYEAR=1900
DGENRE=Blues
TTITLE0=Basin Street Blues
TTITLE1=Starlit Hour
TTITLE2=We Cant Go On This Way
TTITLE3=Stairway To The Stars
TTITLE4=Lover Come Back To Me
TTITLE5=Is There Somebody Else
TTITLE6=A Tisket, A Tisket
TTITLE7=Sing Song Swing
TTITLE8=That Old Black Magic
TTITLE9=Sugar Blues
TTITLE10=It's A Blue World
TTITLE11=Flying Home
TTITLE12=Who Ya Hunchin
TTITLE13=I Wanna Be A Rug Cutter
TTITLE14=A Fine Romance
EXTD=ID3G: 0
EXTT0=
EXTT1=
EXTT2=
EXTT3=
EXTT4=
EXTT5=
EXTT6=
EXTT7=
EXTT8=
EXTT9=
EXTT10=
EXTT11=
EXTT12=
EXTT13=
EXTT14=
PLAYORDER=
